Coordinates
version=1
nRows=24
nColumns=34
inDegrees=no

Units are S.I. units (second, meters, Newtons, ...)
If the header above contains a line with 'inDegrees', this indicates whether rotational values are in degrees (yes) or radians (no).

endheader
time	pelvis_tilt	pelvis_list	pelvis_rotation	pelvis_tx	pelvis_ty	pelvis_tz	hip_flexion_r	hip_adduction_r	hip_rotation_r	knee_angle_r	ankle_angle_r	subtalar_angle_r	mtp_angle_r	hip_flexion_l	hip_adduction_l	hip_rotation_l	knee_angle_l	ankle_angle_l	subtalar_angle_l	mtp_angle_l	lumbar_extension	lumbar_bending	lumbar_rotation	arm_flex_r	arm_add_r	arm_rot_r	elbow_flex_r	pro_sup_r	arm_flex_l	arm_add_l	arm_rot_l	elbow_flex_l	pro_sup_l
0.002	-0.217512	0.00286529	0.0269506	-0.0235586	1.01571	-0.00248958	0.092601	-0.204373	-0.281839	0.813123	-0.308163	0.0378045	0.0782744	0.639562	-0.0645714	-0.311045	0.322792	-0.220718	0.243745	0.213551	-0.0195007	-0.049543	0.103637	0.240087	-0.297169	0.275133	1.88289	0.884604	-0.611083	-0.281653	-0.396642	1.71094	0.719085
0.00299874	-0.215768	0.00330778	0.0266384	-0.0234462	1.01523	-0.00248794	0.0937581	-0.20519	-0.279831	0.818598	-0.306116	0.0359567	0.0783124	0.638351	-0.0642134	-0.30933	0.32844	-0.214406	0.240531	0.209319	-0.0214292	-0.0505718	0.103232	0.238499	-0.295933	0.273464	1.87957	0.884738	-0.607924	-0.28282	-0.39488	1.70886	0.719199
0.00399748	-0.214025	0.00374906	0.026326	-0.0233346	1.01474	-0.00248594	0.0949151	-0.206008	-0.277823	0.824073	-0.304069	0.034109	0.0783504	0.63714	-0.0638552	-0.307615	0.334088	-0.208094	0.237317	0.205088	-0.0233582	-0.0516011	0.102827	0.236912	-0.294698	0.271795	1.87625	0.884871	-0.604765	-0.283987	-0.393117	1.70679	0.719313
0.00499622	-0.212283	0.00418914	0.0260135	-0.0232239	1.01423	-0.00248358	0.0960719	-0.206825	-0.275815	0.829548	-0.302023	0.0322612	0.0783884	0.635929	-0.0634967	-0.3059	0.339736	-0.201782	0.234103	0.200856	-0.0252876	-0.0526309	0.102422	0.235325	-0.293462	0.270126	1.87292	0.885005	-0.601605	-0.285154	-0.391354	1.70472	0.719426
0.00599496	-0.210543	0.00462802	0.0257008	-0.0231141	1.01371	-0.00248083	0.0972287	-0.207643	-0.273807	0.835023	-0.299976	0.0304134	0.0784264	0.634717	-0.0631381	-0.304185	0.345384	-0.19547	0.23089	0.196625	-0.0272175	-0.053661	0.102017	0.233738	-0.292227	0.268457	1.8696	0.885139	-0.598445	-0.286321	-0.389592	1.70264	0.71954
0.0069937	-0.208803	0.00506571	0.025388	-0.0230052	1.01319	-0.00247769	0.0983855	-0.20846	-0.271799	0.840498	-0.297929	0.0285655	0.0784643	0.633505	-0.0627793	-0.302471	0.351033	-0.189157	0.227676	0.192395	-0.0291479	-0.0546915	0.101612	0.232151	-0.290991	0.266788	1.86628	0.885272	-0.595285	-0.287488	-0.387829	1.70057	0.719653
0.00799244	-0.207065	0.00550217	0.0250752	-0.0228973	1.01265	-0.00247413	0.0995425	-0.209277	-0.26979	0.845974	-0.295882	0.0267175	0.0785021	0.632293	-0.0624205	-0.300756	0.356682	-0.182845	0.224463	0.188165	-0.0310789	-0.0557222	0.101206	0.230564	-0.289755	0.265119	1.86295	0.885406	-0.592124	-0.288655	-0.386066	1.69849	0.719767
0.00899118	-0.205328	0.00593739	0.0247622	-0.0227905	1.01211	-0.00247017	0.1007	-0.210094	-0.267781	0.851449	-0.293835	0.0248694	0.0785397	0.631081	-0.0620616	-0.299042	0.362331	-0.176532	0.221251	0.183937	-0.0330104	-0.0567533	0.1008	0.228977	-0.288518	0.263449	1.85963	0.885539	-0.588963	-0.289822	-0.384303	1.69642	0.719881
0.00998992	-0.203593	0.00637131	0.0244492	-0.0226848	1.01155	-0.00246579	0.101858	-0.21091	-0.265772	0.856924	-0.291788	0.0230211	0.0785771	0.629869	-0.061703	-0.297328	0.367981	-0.170219	0.218039	0.17971	-0.0349426	-0.0577845	0.100394	0.227391	-0.287282	0.261779	1.8563	0.885673	-0.5858	-0.290989	-0.382539	1.69435	0.719995
0.0109887	-0.201859	0.00680388	0.0241362	-0.0225802	1.01099	-0.00246096	0.103017	-0.211725	-0.263762	0.8624	-0.289741	0.0211726	0.0786142	0.628656	-0.0613445	-0.295614	0.373631	-0.163906	0.214828	0.175485	-0.0368754	-0.0588158	0.0999872	0.225806	-0.286044	0.260108	1.85297	0.885806	-0.582636	-0.292156	-0.380776	1.69227	0.720109
0.0119874	-0.200126	0.00723504	0.0238233	-0.0224768	1.01041	-0.00245565	0.104176	-0.212539	-0.261752	0.867875	-0.287694	0.0193238	0.078651	0.627443	-0.0609865	-0.293902	0.379281	-0.157593	0.211618	0.171263	-0.038809	-0.0598471	0.0995797	0.224221	-0.284806	0.258437	1.84964	0.88594	-0.579471	-0.293323	-0.379012	1.69019	0.720223
0.0129861	-0.198394	0.0076647	0.0235105	-0.0223747	1.00983	-0.00244985	0.105338	-0.213352	-0.259742	0.873351	-0.285646	0.0174747	0.0786873	0.626231	-0.060629	-0.292189	0.384932	-0.151279	0.208409	0.167044	-0.0407433	-0.0608784	0.0991713	0.222637	-0.283567	0.256765	1.84631	0.886074	-0.576303	-0.29449	-0.377247	1.68812	0.720337
0.0139849	-0.196665	0.00809276	0.0231977	-0.0222738	1.00924	-0.00244354	0.1065	-0.214162	-0.25773	0.878827	-0.283599	0.0156252	0.078723	0.625018	-0.0602722	-0.290477	0.390584	-0.144965	0.205202	0.162829	-0.0426785	-0.0619095	0.098762	0.221054	-0.282326	0.255093	1.84297	0.886207	-0.573133	-0.295656	-0.375482	1.68604	0.720451
0.0149836	-0.194937	0.00851913	0.0228852	-0.0221743	1.00864	-0.00243668	0.107665	-0.214971	-0.255718	0.884303	-0.281551	0.0137753	0.0787582	0.623805	-0.0599162	-0.288767	0.396236	-0.138651	0.201997	0.158618	-0.0446145	-0.0629403	0.0983517	0.219473	-0.281085	0.253419	1.83963	0.886341	-0.569961	-0.296823	-0.373717	1.68396	0.720565
0.0159824	-0.19321	0.00894368	0.022573	-0.0220763	1.00804	-0.00242926	0.108832	-0.215777	-0.253705	0.889778	-0.279502	0.011925	0.0787926	0.622593	-0.0595614	-0.287057	0.401888	-0.132337	0.198794	0.154413	-0.0465513	-0.0639706	0.0979401	0.217892	-0.279842	0.251745	1.83628	0.886475	-0.566786	-0.297989	-0.371951	1.68188	0.72068
0.0169811	-0.191486	0.00936629	0.022261	-0.0219797	1.00742	-0.00242127	0.110001	-0.21658	-0.251691	0.895254	-0.277454	0.0100741	0.0788262	0.62138	-0.0592078	-0.285348	0.407541	-0.126024	0.195594	0.150215	-0.0484891	-0.0650005	0.0975271	0.216314	-0.278598	0.250069	1.83293	0.886608	-0.563607	-0.299155	-0.370185	1.6798	0.720794
0.0179798	-0.189763	0.00978681	0.0219495	-0.0218846	1.0068	-0.00241269	0.111174	-0.217379	-0.249677	0.90073	-0.275405	0.00822264	0.0788589	0.620168	-0.0588557	-0.28364	0.413195	-0.11971	0.192396	0.146023	-0.0504279	-0.0660297	0.0971125	0.214737	-0.277352	0.248392	1.82958	0.886742	-0.560424	-0.30032	-0.368417	1.67772	0.720909
0.0189786	-0.188043	0.0102051	0.0216383	-0.0217911	1.00617	-0.00240353	0.11235	-0.218175	-0.247661	0.906206	-0.273356	0.00637056	0.0788906	0.618957	-0.0585053	-0.281934	0.418849	-0.113398	0.189202	0.141839	-0.0523677	-0.0670581	0.0966961	0.213162	-0.276104	0.246714	1.82622	0.886876	-0.557237	-0.301485	-0.366649	1.67563	0.721024
0.0199773	-0.186324	0.010621	0.0213277	-0.0216991	1.00553	-0.00239373	0.11353	-0.218967	-0.245644	0.911681	-0.271306	0.00451783	0.0789211	0.617745	-0.0581569	-0.28023	0.424504	-0.107086	0.186011	0.137665	-0.0543085	-0.0680855	0.0962779	0.211589	-0.274854	0.245034	1.82285	0.88701	-0.554046	-0.30265	-0.36488	1.67355	0.721139
0.0209761	-0.184608	0.0110344	0.0210176	-0.0216087	1.00489	-0.00238323	0.114714	-0.219753	-0.243625	0.917157	-0.269256	0.0026644	0.0789503	0.616534	-0.0578107	-0.278527	0.430158	-0.100775	0.182825	0.133501	-0.0562504	-0.0691118	0.0958575	0.210018	-0.273602	0.243352	1.81947	0.887143	-0.550849	-0.303814	-0.363111	1.67146	0.721255
0.0219748	-0.182894	0.0114451	0.0207081	-0.0215201	1.00424	-0.00237202	0.115902	-0.220535	-0.241606	0.922632	-0.267205	0.000810232	0.0789782	0.615324	-0.057467	-0.276826	0.435813	-0.0944653	0.179643	0.129348	-0.0581934	-0.0701368	0.0954348	0.20845	-0.272348	0.241669	1.81609	0.887277	-0.547647	-0.304978	-0.36134	1.66937	0.72137
0.0229736	-0.181183	0.0118529	0.0203992	-0.0214331	1.00358	-0.00236007	0.117096	-0.221311	-0.239584	0.928107	-0.265154	-0.00104468	0.0790045	0.614114	-0.0571259	-0.275127	0.441468	-0.0881577	0.176467	0.125207	-0.0601375	-0.0711603	0.0950096	0.206885	-0.271091	0.239984	1.81269	0.88741	-0.544439	-0.30614	-0.359568	1.66727	0.721485
0.0239723	-0.179474	0.0122577	0.0200911	-0.0213481	1.00292	-0.00234733	0.118296	-0.22208	-0.237562	0.933581	-0.263102	-0.00290035	0.0790293	0.612905	-0.0567878	-0.273431	0.447123	-0.0818523	0.173296	0.121081	-0.0620828	-0.0721823	0.0945817	0.205323	-0.269831	0.238296	1.80929	0.887544	-0.541224	-0.307302	-0.357795	1.66518	0.721601
0.024971	-0.177768	0.0126593	0.0197838	-0.0212649	1.00225	-0.00233378	0.119502	-0.222843	-0.235537	0.939055	-0.26105	-0.00475677	0.0790522	0.611696	-0.0564528	-0.271737	0.452778	-0.0755496	0.170131	0.116969	-0.0640292	-0.0732026	0.0941509	0.203764	-0.268569	0.236606	1.80588	0.887677	-0.538002	-0.308463	-0.356021	1.66308	0.721716
